<svg xmlns="http://www.w3.org/2000/svg" xmlns:xlink="http://www.w3.org/1999/xlink" width="394" height="1108" viewBox="0 0 394 1108"><svg width="94" height="94" viewBox="-2 -2 33 33"><g fill="none" fill-rule="evenodd"><path fill="#016FD0" d="M0 0h29v29H0V12.228z"/><path fill="#FFF" d="M5.623 20.203v-4.56h4.817l.516.678.531-.677H29v4.237s-.451.306-.983.306h-9.683l-.58-.725v.725h-1.917v-1.224s-.258.177-.821.177h-.645v1.047h-2.9l-.515-.693-.532.693-4.801.016zM0 12.228l1.08-2.53h1.884l.613 1.419V9.699h2.336l.37 1.031.355-1.031h10.488v.515s.548-.515 1.45-.515l3.4.016.612 1.402V9.699h1.95l.53.805V9.7h1.999v4.56h-1.982l-.516-.806v.805h-2.867l-.29-.725h-.774l-.29.725h-1.95c-.772 0-1.272-.5-1.272-.5v.5h-2.932l-.58-.725v.725H2.69l-.29-.725h-.774l-.29.725H0v-2.03z"/><path fill="#016FD0" d="M1.466 10.247L0 13.662h.95l.274-.676h1.58l.273.676h.983l-1.466-3.415H1.466zm.548.79l.483 1.191h-.966l.483-1.192zm2.143 2.625v-3.415l1.353.016.79 2.19.773-2.206H8.41v3.415h-.854V11.15l-.902 2.513h-.741l-.919-2.513v2.513zm4.833 0v-3.415h2.787v.773H9.86v.58h1.869v.709H9.86v.612h1.917v.741zm3.27-3.415v3.415h.854v-1.208h.355l1.015 1.208h1.047l-1.128-1.256a1.03 1.03 0 0 0 .935-1.048c0-.725-.564-1.111-1.192-1.111H12.26zm.854.773h.967c.242 0 .403.177.403.354 0 .226-.226.355-.387.355h-.983v-.709zm3.464 2.642h-.87v-3.415h.87zm2.062 0h-.193c-.902 0-1.466-.709-1.466-1.691 0-1 .548-1.724 1.692-1.724h.934v.805h-.983c-.467 0-.789.37-.789.919 0 .66.37.934.918.934h.226l-.338.757zm1.853-3.415l-1.466 3.415h.95l.275-.676h1.579l.273.676h.983l-1.466-3.415h-1.128zm.548.79l.483 1.191h-.966l.483-1.192zm2.127 2.625v-3.415h1.08l1.385 2.142v-2.142h.854v3.415h-1.048l-1.417-2.207v2.207zM6.219 19.623v-3.415H8.99v.773H7.073v.58h1.869v.725h-1.87v.596H8.99v.741zm13.614 0v-3.415h2.787v.773h-1.917v.58h1.869v.725h-1.87v.596h1.918v.741zm-10.73 0l1.353-1.675-1.385-1.74h1.079l.822 1.08.821-1.08h1.031l-1.369 1.708 1.37 1.707h-1.08l-.806-1.047-.773 1.047zm3.818-3.399v3.415h.87V18.56h.902c.758 0 1.338-.403 1.338-1.192 0-.645-.452-1.144-1.225-1.144h-1.885zm.87.757h.95c.242 0 .42.145.42.387 0 .225-.178.386-.42.386h-.934v-.773h-.016zm2.61-.773v3.415h.854v-1.208h.354l1.015 1.208h1.048l-1.128-1.256a1.03 1.03 0 0 0 .934-1.048c0-.725-.564-1.111-1.192-1.111h-1.885zm.854.773h.967c.241 0 .402.177.402.355 0 .225-.225.354-.386.354h-.983v-.709zm5.768 2.642v-.74h1.708c.257 0 .354-.13.354-.29 0-.146-.113-.29-.354-.29h-.774c-.676 0-1.047-.404-1.047-1.016 0-.548.338-1.08 1.337-1.08h1.66l-.355.774h-1.434c-.274 0-.354.145-.354.274 0 .145.097.29.306.29h.806c.74 0 1.063.419 1.063.983 0 .596-.355 1.08-1.112 1.08l-1.804.015zm3.125 0v-.74h1.628c.257 0 .354-.13.354-.29 0-.146-.113-.29-.354-.29h-.693c-.677 0-1.047-.404-1.047-1.016 0-.548.338-1.08 1.337-1.08H29l-.354.774h-1.402c-.274 0-.355.145-.355.274 0 .145.097.29.307.29h.74c.742 0 1.064.419 1.064.983 0 .596-.354 1.08-1.112 1.08l-1.74.015z"/></g></svg><svg width="158" height="68" viewBox="-4 -4 86 29" y="94"><path d="M12.37 9.045l-8.646 3.726a4.952 4.952 0 0 1 8.647-3.726zM8.657 3.664c4.08 0 7.5 2.823 8.414 6.622l-3.488 1.525-.001-.007-3.57 1.568-8.56 3.744A8.655 8.655 0 0 1 8.656 3.664zm6.047 14.846c-3.1 2.942-7.2 3.23-10.802 1.044l2.036-3.095c2.05 1.225 4.109 1.027 6.178-.598l2.588 2.65m3.524-2.143L18.206 0h3.101v15.926c0 .153.02.288.22.365l2.697 1.05-1.215 3.16-3.16-1.337c-1.199-.507-1.619-1.242-1.621-2.796m11.676-.275a4.93 4.93 0 0 1-1.91-3.9c0-1.411.592-2.683 1.54-3.583L27.53 5.364a8.69 8.69 0 0 0-3.307 6.828 8.696 8.696 0 0 0 3.789 7.185l1.891-3.284m1.359-8.55a4.942 4.942 0 0 1 6.295 2.908l3.838-.32c-.927-3.815-4.362-6.648-8.462-6.648a8.669 8.669 0 0 0-3.273.639l1.602 3.42m6.605 4.89a4.94 4.94 0 0 1-6.136 4.552l-1.506 3.486a8.707 8.707 0 0 0 11.408-7.919l-3.766-.12" fill="#FFF" fill-rule="evenodd"/></svg><svg width="109" height="104" viewBox="-2 -2 45 42" y="162"><g fill="none" fill-rule="evenodd"><path fill="#F79F1A" d="M40.521 12.333c0 6.743-5.541 12.21-12.376 12.21-6.836 0-12.377-5.467-12.377-12.21 0-6.743 5.541-12.21 12.377-12.21 6.835 0 12.376 5.467 12.376 12.21z"/><path fill="#EA001B" d="M25.253 12.333c0 6.743-5.541 12.21-12.377 12.21C6.041 24.543.5 19.076.5 12.333.5 5.59 6.041.123 12.876.123c6.836 0 12.377 5.467 12.377 12.21z"/><path fill="#FF5F01" d="M20.51 2.722c-2.887 2.235-4.74 5.708-4.74 9.61 0 3.902 1.853 7.378 4.74 9.613 2.888-2.235 4.742-5.711 4.742-9.613 0-3.902-1.854-7.375-4.741-9.61z"/><path fill="#FFF" d="M2.133 36.904v-8.68h2.863c2.782 0 4.53 1.965 4.53 4.347 0 2.407-1.748 4.333-4.53 4.333H2.133zm.766-.677h2.097c2.366 0 3.723-1.626 3.723-3.656 0-2.03-1.344-3.67-3.723-3.67H2.899v7.326zm11.13-6.558l2.311-1.874h-.833l-2.07 1.874h.591zm-2.998 4.086c0-1.822 1.33-3.292 3.132-3.292 1.975 0 3.064 1.522 3.064 3.33v.183h-5.43c.067 1.366 1.008 2.498 2.54 2.498.82 0 1.573-.299 2.124-.871l.363.442c-.645.65-1.465 1.015-2.54 1.015-1.896 0-3.253-1.366-3.253-3.305zm3.118-2.707c-1.532 0-2.298 1.301-2.352 2.394h4.718c-.014-1.067-.74-2.394-2.366-2.394zm4.88 5.856v-8.68h.698v3.41c.524-.716 1.344-1.171 2.258-1.171 1.734 0 2.903 1.314 2.903 3.305 0 2.017-1.182 3.292-2.903 3.292a2.79 2.79 0 0 1-2.258-1.158v1.002h-.699zm.698-1.575c.376.599 1.237 1.12 2.137 1.12 1.452 0 2.272-1.159 2.272-2.681 0-1.523-.82-2.694-2.272-2.694-.9 0-1.76.547-2.137 1.145v3.11zm7.325-5.7a.53.53 0 0 0 .538-.52c0-.286-.242-.507-.538-.507-.282 0-.537.221-.537.507 0 .287.255.52.537.52zm-.349 7.275h.699v-6.285h-.699v6.285zm4.288.156c.537 0 .846-.156 1.102-.39l-.27-.52a1.03 1.03 0 0 1-.725.298c-.457 0-.672-.35-.672-.858v-4.373h1.317v-.598h-1.317V28.9h-.712v1.718h-1.076v.598h1.076v4.477c0 .859.416 1.366 1.277 1.366zm5.026 0c-1.895 0-3.118-1.47-3.118-3.305 0-1.835 1.223-3.292 3.118-3.292 1.923 0 3.132 1.457 3.132 3.292 0 1.835-1.21 3.305-3.132 3.305zm0-.612c1.533 0 2.38-1.288 2.38-2.693 0-1.393-.847-2.68-2.38-2.68-1.505 0-2.365 1.287-2.365 2.68 0 1.405.86 2.693 2.365 2.693z"/></g></svg><svg width="109" height="104" viewBox="-2 -2 45 42" y="266"><g fill="none" fill-rule="evenodd"><path fill="#F79F1A" d="M40.021 12.833c0 6.743-5.541 12.21-12.376 12.21-6.836 0-12.377-5.467-12.377-12.21 0-6.743 5.541-12.21 12.377-12.21 6.835 0 12.376 5.467 12.376 12.21z"/><path fill="#EA001B" d="M24.753 12.833c0 6.743-5.541 12.21-12.377 12.21C5.541 25.043 0 19.576 0 12.833 0 6.09 5.541.623 12.376.623c6.836 0 12.377 5.467 12.377 12.21z"/><path fill="#FF5F01" d="M20.01 3.222c-2.887 2.235-4.74 5.708-4.74 9.61 0 3.902 1.853 7.378 4.74 9.613 2.888-2.235 4.742-5.711 4.742-9.613 0-3.902-1.854-7.375-4.741-9.61z"/><path fill="#333" d="M1.633 37.404v-8.68h2.863c2.782 0 4.53 1.965 4.53 4.347 0 2.407-1.748 4.333-4.53 4.333H1.633zm.766-.677h2.097c2.366 0 3.723-1.626 3.723-3.656 0-2.03-1.344-3.67-3.723-3.67H2.399v7.326zm11.13-6.558l2.311-1.874h-.833l-2.07 1.874h.591zm-2.998 4.086c0-1.822 1.33-3.292 3.132-3.292 1.975 0 3.064 1.522 3.064 3.33v.183h-5.43c.067 1.366 1.008 2.498 2.54 2.498.82 0 1.573-.299 2.124-.871l.363.442c-.645.65-1.465 1.015-2.54 1.015-1.896 0-3.253-1.366-3.253-3.305zm3.118-2.707c-1.532 0-2.298 1.301-2.352 2.394h4.718c-.014-1.067-.74-2.394-2.366-2.394zm4.88 5.856v-8.68h.698v3.41c.524-.716 1.344-1.171 2.258-1.171 1.734 0 2.903 1.314 2.903 3.305 0 2.017-1.182 3.292-2.903 3.292a2.79 2.79 0 0 1-2.258-1.158v1.002h-.699zm.698-1.575c.376.599 1.237 1.12 2.137 1.12 1.452 0 2.272-1.159 2.272-2.681 0-1.523-.82-2.694-2.272-2.694-.9 0-1.76.547-2.137 1.145v3.11zm7.325-5.7a.53.53 0 0 0 .538-.52c0-.286-.242-.507-.538-.507-.282 0-.537.221-.537.507 0 .287.255.52.537.52zm-.349 7.275h.699v-6.285h-.699v6.285zm4.288.156c.537 0 .846-.156 1.102-.39l-.27-.52a1.03 1.03 0 0 1-.725.298c-.457 0-.672-.35-.672-.858v-4.373h1.317v-.598h-1.317V29.4h-.712v1.718h-1.076v.598h1.076v4.477c0 .859.416 1.366 1.277 1.366zm5.026 0c-1.895 0-3.118-1.47-3.118-3.305 0-1.835 1.223-3.292 3.118-3.292 1.923 0 3.132 1.457 3.132 3.292 0 1.835-1.21 3.305-3.132 3.305zm0-.612c1.533 0 2.38-1.288 2.38-2.693 0-1.393-.847-2.68-2.38-2.68-1.505 0-2.365 1.287-2.365 2.68 0 1.405.86 2.693 2.365 2.693z"/></g></svg><svg width="119" height="84" viewBox="-2 -2 49 33" y="370"><path d="M6.558 28.6v-8.633h2.863c2.782 0 4.53 1.954 4.53 4.323 0 2.394-1.748 4.31-4.53 4.31H6.558zm.766-.673h2.097c2.366 0 3.723-1.618 3.723-3.637 0-2.02-1.344-3.65-3.723-3.65H7.324v7.287zm11.13-6.524l2.311-1.863h-.833l-2.07 1.863h.591zm-2.998 4.065c0-1.812 1.33-3.275 3.132-3.275 1.976 0 3.064 1.514 3.064 3.314v.18h-5.43c.067 1.36 1.008 2.486 2.54 2.486.82 0 1.573-.298 2.124-.867l.363.44c-.645.647-1.465 1.01-2.54 1.01-1.895 0-3.253-1.36-3.253-3.288zm3.118-2.693c-1.532 0-2.298 1.295-2.352 2.382h4.718c-.014-1.061-.74-2.382-2.366-2.382zm4.88 5.825v-8.633h.698v3.39c.524-.71 1.344-1.164 2.258-1.164 1.734 0 2.904 1.307 2.904 3.288 0 2.006-1.183 3.274-2.904 3.274a2.795 2.795 0 0 1-2.258-1.152v.997h-.699zm.698-1.566c.377.595 1.237 1.113 2.137 1.113 1.452 0 2.272-1.152 2.272-2.666 0-1.515-.82-2.68-2.272-2.68-.9 0-1.76.544-2.137 1.14v3.093zm7.326-5.67a.53.53 0 0 0 .537-.517c0-.285-.242-.505-.537-.505-.283 0-.538.22-.538.505 0 .285.255.518.538.518zm-.35 7.236h.699v-6.252h-.699V28.6zm4.288.155c.537 0 .846-.155 1.102-.388l-.269-.518a1.033 1.033 0 0 1-.726.298c-.457 0-.672-.35-.672-.854v-4.35h1.317v-.595h-1.317V20.64h-.712v1.708h-1.075v.596h1.075v4.452c0 .855.416 1.36 1.277 1.36zm5.027 0c-1.896 0-3.119-1.462-3.119-3.287s1.223-3.275 3.119-3.275c1.922 0 3.131 1.45 3.131 3.275s-1.21 3.287-3.131 3.287zm0-.608c1.532 0 2.379-1.281 2.379-2.68 0-1.384-.847-2.666-2.38-2.666-1.505 0-2.365 1.282-2.365 2.667 0 1.398.86 2.679 2.366 2.679zM22.288.75l-2.94 13.537h-3.556L18.732.75h3.556zm14.957 8.74l1.873-5.082 1.077 5.082h-2.95zm3.97 4.797H44.5L41.633.75h-3.036c-.683 0-1.26.39-1.513.992l-5.335 12.545h3.732l.742-2.021h4.562l.43 2.02zM31.931 9.87c.017-3.578-5.015-3.774-4.98-5.367.011-.489.48-1.005 1.507-1.138.51-.064 1.913-.114 3.507.606L32.59 1.1c-.854-.304-1.957-.6-3.326-.6-3.512 0-5.988 1.84-6.007 4.478-.023 1.947 1.765 3.035 3.114 3.685 1.383.662 1.847 1.087 1.844 1.682-.01.907-1.107 1.309-2.128 1.322-1.787.03-2.827-.474-3.652-.852l-.646 2.966c.83.376 2.364.699 3.955.719 3.734 0 6.178-1.82 6.188-4.63zM17.208.75l-5.76 13.537h-3.76L4.854 3.483c-.174-.667-.324-.908-.846-1.19C3.155 1.835 1.743 1.407.5 1.14L.586.75h6.048c.772 0 1.465.504 1.64 1.38l1.498 7.835L13.471.75h3.737z" fill="#FFF" fill-rule="evenodd"/></svg><svg width="114" height="74" viewBox="-2 -2 49 33" y="454"><g fill="none" fill-rule="evenodd"><path fill="#333" d="M6.558 28.1v-8.633h2.863c2.782 0 4.53 1.954 4.53 4.323 0 2.394-1.748 4.31-4.53 4.31H6.558zm.766-.673h2.097c2.366 0 3.723-1.618 3.723-3.637 0-2.02-1.344-3.65-3.723-3.65H7.324v7.287zm11.13-6.524l2.311-1.863h-.833l-2.07 1.863h.591zm-2.998 4.065c0-1.812 1.33-3.275 3.132-3.275 1.976 0 3.064 1.514 3.064 3.314v.18h-5.43c.067 1.36 1.008 2.486 2.54 2.486.82 0 1.573-.298 2.124-.867l.363.44c-.645.647-1.465 1.01-2.54 1.01-1.895 0-3.253-1.36-3.253-3.288zm3.118-2.693c-1.532 0-2.298 1.295-2.352 2.382h4.718c-.014-1.061-.74-2.382-2.366-2.382zm4.88 5.825v-8.633h.698v3.39c.524-.71 1.344-1.164 2.258-1.164 1.734 0 2.904 1.307 2.904 3.288 0 2.006-1.183 3.274-2.904 3.274a2.795 2.795 0 0 1-2.258-1.152v.997h-.699zm.698-1.566c.377.595 1.237 1.113 2.137 1.113 1.452 0 2.272-1.152 2.272-2.666 0-1.515-.82-2.68-2.272-2.68-.9 0-1.76.544-2.137 1.14v3.093zm7.326-5.67a.53.53 0 0 0 .537-.517c0-.285-.242-.505-.537-.505-.283 0-.538.22-.538.505 0 .285.255.518.538.518zm-.35 7.236h.699v-6.252h-.699V28.1zm4.288.155c.537 0 .846-.155 1.102-.388l-.269-.518a1.033 1.033 0 0 1-.726.298c-.457 0-.672-.35-.672-.854v-4.35h1.317v-.595h-1.317V20.14h-.712v1.708h-1.075v.596h1.075v4.452c0 .855.416 1.36 1.277 1.36zm5.027 0c-1.896 0-3.119-1.462-3.119-3.287s1.223-3.275 3.119-3.275c1.922 0 3.131 1.45 3.131 3.275s-1.21 3.287-3.131 3.287zm0-.608c1.532 0 2.379-1.281 2.379-2.68 0-1.384-.847-2.666-2.38-2.666-1.505 0-2.365 1.282-2.365 2.667 0 1.398.86 2.679 2.366 2.679z"/><path fill="#10357E" d="M22.288.25l-2.94 13.537h-3.556L18.732.25h3.556zm14.957 8.74l1.873-5.082 1.077 5.082h-2.95zm3.97 4.797H44.5L41.633.25h-3.036c-.683 0-1.26.39-1.513.992l-5.335 12.545h3.732l.742-2.021h4.562l.43 2.02zM31.931 9.37c.017-3.578-5.015-3.774-4.98-5.367.011-.489.48-1.005 1.507-1.138.51-.064 1.913-.114 3.507.606L32.59.6c-.854-.304-1.957-.6-3.326-.6-3.512 0-5.988 1.84-6.007 4.478-.023 1.947 1.765 3.035 3.114 3.685 1.383.662 1.847 1.087 1.844 1.682-.01.907-1.107 1.309-2.128 1.322-1.787.03-2.827-.474-3.652-.852l-.646 2.966c.83.376 2.364.699 3.955.719 3.734 0 6.178-1.82 6.188-4.63zM17.208.25l-5.76 13.537h-3.76L4.854 2.983c-.174-.667-.324-.908-.846-1.19C3.155 1.335 1.743.907.5.64L.586.25h6.048c.772 0 1.465.504 1.64 1.38l1.498 7.835L13.471.25h3.737z"/></g></svg><svg width="209" height="82" viewBox="-2 -2 209 82" y="528"><title>314D6BE1-297C-48DA-AF29-05A961A67C2E</title><g transform="translate(0 12)" fill="none" fill-rule="evenodd"><ellipse fill="#FFF" cx="27.383" cy="27.345" rx="26.243" ry="25.949"/><path d="M190.04 10.753V22.9a33.324 33.324 0 0 1-.395 5.034l.598.31.855-.645a8.52 8.52 0 0 0 3.978.993c4.073 0 6.788-3.705 6.788-7.41 0-3.074-1.996-5.933-5.322-5.933-1.61.186-3.11.9-4.263 2.027V6.954c0-.229 0-.403-.23-.403a2.91 2.91 0 0 0-.625.309 18 18 0 0 1-2.946 1.221v.457c1.127.308 1.561.376 1.561 2.215zm2.293 7.356a4.417 4.417 0 0 1 2.716-1.342c2.226 0 4.575 2.537 4.575 5.597 0 2.524-1.29 5.49-4.345 5.49-1.587-.066-2.863-1.316-2.946-2.885v-6.873.013zm-96.39 10.068v-.738h-.489c-.801 0-1.426 0-1.426-.94v-10.86c0-.228 0-.39-.203-.39-.181 0-.359.046-.516.135-.109.094-1.71.617-3.055 1.02v.457c1.06.563 1.494.724 1.494 1.973v7.665c0 .94-.57.94-1.358.94h-.665v.738h3.122c1.032 0 2.05-.013 3.028-.013l.068.013zm15.191-.738h-.515c-.801 0-1.426 0-1.426-.94v-7.29c0-2.2-.855-3.96-3.285-3.96a8.423 8.423 0 0 0-4.956 2.122v-1.84c0-.228-.081-.281-.163-.281-1.234.51-2.494.958-3.774 1.342v.537c1.358.537 1.657.819 1.657 1.866v7.49c0 .94-.57.94-1.358.94h-.516v.739h6.122v-.739h-.515c-.801 0-1.44 0-1.44-.94v-8.363a7.664 7.664 0 0 1 3.327-1.342c.69-.109 1.393.1 1.907.57.513.468.781 1.144.727 1.833v7.316c0 .94-.57.94-1.358.94h-.516v.738h6.123v-.738h-.04zm-34.09.738c10.129 0 11.785-7.034 11.785-9.84 0-5.007-4.073-9.893-11.431-9.893h-8.309v.725c1.29 0 2.634-.135 2.634 2.403V25.29c-.082 1.92-.923 1.973-2.634 2.148v.738h3.829c1.29 0 2.593-.013 4.045-.013l.082.013zM74.493 9.464c.516 0 1.06-.107 2.227-.107 5.525 0 8.947 3.812 8.947 9.101 0 4.215-2.023 8.82-8.146 8.82-1.358 0-2.973-.255-2.973-2.43V9.45l-.055.013zm99.975 18.713v-.738h-.57c-.801 0-1.425 0-1.425-.94V6.954c0-.229 0-.403-.231-.403-.22.079-.43.182-.625.309-.943.492-1.93.901-2.946 1.221v.457c1.086.308 1.52.362 1.52 2.201v15.747c0 .94-.57.94-1.357.94h-.543v.738h6.109l.068.013zm-44.801 0v-.738h-1.656c-.801 0-1.358 0-1.358-.94v-6.645a2.4 2.4 0 0 1 2.09-2.35c1.005 0 1.005.686 1.888.686.38 0 .742-.155 1-.43.258-.276.388-.646.357-1.02a1.536 1.536 0 0 0-.495-1.09 1.572 1.572 0 0 0-1.134-.414c-1.737 0-2.946 1.812-3.652 2.913v-2.537c0-.282-.081-.362-.258-.362-.176 0-1.357.738-3.489 1.61v.417c.435.228 1.48.402 1.48 1.275v7.947c0 .94-.57.94-1.358.94h-.773v.738h3.407c1.181 0 2.322-.04 3.897-.013l.054.013zm46.498-10.175v7.235c-.09.87.203 1.736.803 2.378.6.642 1.45.998 2.333.978 2.037 0 3.354-.993 5.064-2.376V28.5l.136.08a29.639 29.639 0 0 1 4.073-.872v-.59h-1.14c-.49 0-.802 0-.802-.537V16.15c0-.31 0-.511-.23-.511-.231 0-1.887.228-4.467.39v.51c1.032.281 2.403.59 2.403 1.154v7.611a6.435 6.435 0 0 1-3.462 1.719c-2.484 0-2.484-2.43-2.484-3.276v-7.29c0-.617 0-.818-.313-.818-.312 0-2.715.161-3.692.201v.537c1.615.161 1.724.873 1.724 1.611l.054.014zm-39.29 9.692c-1.914-.077-3.467-1.56-3.61-3.45l-.516.147.312 3.249a7.614 7.614 0 0 0 3.489.953c3.408 0 4.915-1.987 4.915-3.84 0-4.442-6.64-3.422-6.64-6.711.031-.545.287-1.054.708-1.407s.97-.519 1.52-.46a2.953 2.953 0 0 1 2.163.748c.589.53.935 1.272.959 2.059h.651l-.203-2.887a7.603 7.603 0 0 0-3.258-.818c-3.15 0-4.44 2.027-4.44 3.624 0 4.55 6.232 3.477 6.232 6.82a1.991 1.991 0 0 1-.714 1.508 2.039 2.039 0 0 1-1.621.451l.054.014zM92.82 10.9a1.417 1.417 0 0 0 1.358-1.41 1.35 1.35 0 0 0-1.358-1.342c-.768 0-1.391.616-1.391 1.376 0 .76.623 1.376 1.391 1.376zm73.8 16.203l.652-4.135-.652-.16c-.43 2.813-2.878 4.891-5.756 4.886-4.399 0-8.526-4.095-8.526-9.813 0-6.78 4.779-8.954 8.064-8.954 3.286 0 5.58 1.342 6.11 4.631h.72l-.286-4.027a20.82 20.82 0 0 0-6.788-1.503c-5.607 0-10.861 4.161-10.861 9.96 0 6.363 4.222 10.632 10.86 10.632 2.24-.059 4.44-.58 6.463-1.53v.013zm-50.232 1.504a6.717 6.717 0 0 0 5.295-3.195l-.394-.39a5.453 5.453 0 0 1-3.855 1.893c-2.281 0-4.073-2.201-4.195-4.886a6.637 6.637 0 0 1 0-1.638h8.037l.258-.174c.012-.17.012-.34 0-.51a4.461 4.461 0 0 0-1.452-3.245 4.565 4.565 0 0 0-3.381-1.185c-1.996 0-5.77 1.637-5.77 7.181.013 1.772.923 6.135 5.471 6.135l-.014.014zm.19-12.444a2.444 2.444 0 0 1 1.831.753c.474.497.712 1.17.654 1.85a.627.627 0 0 1-.203.574.643.643 0 0 1-.598.138h-4.983c.38-2.054 1.575-3.329 3.327-3.329l-.028.014zm-31.7 18.176h-2.212v.59h.407c.36-.022.712.115.961.374a1.2 1.2 0 0 1 .328.969v5.651l-6.788-7.611h-3.231v.59h.272c.75 0 1.357.601 1.357 1.343v6.484c0 1.221-.312 1.879-1.357 1.892h-.286v.591h4.196v-.59h-.34c-1.167 0-1.358-.39-1.358-1.732v-6.162l7.902 8.699h.719v-.08a10.036 10.036 0 0 1-.095-1.544v-7.008c0-1.812.68-1.866 1.358-1.893h.299v-.644h-.068c-.76 0-1.399.067-2.037.067l-.027.014zm-13.644 0h-2.376v.59h.285c.57 0 1.086 0 1.086.82v8.054c0 .751-.515.805-1.086.818h-.285v.591h4.874v-.59h-.299c-.57 0-1.086 0-1.086-.82v-8.054c0-.752.516-.805 1.086-.819h.286v-.67h-.014c-.733 0-1.63.066-2.444.066l-.027.014zm130.901 8.054a3.403 3.403 0 0 1-.461 1.087 2.192 2.192 0 0 1-1.44.806c-.393.02-.787.02-1.18 0h-.856a.807.807 0 0 1-.61-.207.788.788 0 0 1-.259-.585V35.56c0-.778.394-.752.992-.765h.448v-.537h-4.82v.59h.285c.57 0 1.1 0 1.1.806v7.907a.867.867 0 0 1-.288.775.89.89 0 0 1-.812.191h-.285v.591h8.146c.19-.872.407-1.732.57-2.618v-.08h-.584l.054-.027zm-9.883 1.584c-.204-.456-.394-1.02-.57-1.557l-2.865-8.055c0-.12-.095-.268-.136-.389a.177.177 0 0 0-.176-.094.384.384 0 0 0-.15 0c-.43.26-.885.48-1.357.658a19.185 19.185 0 0 1-.61 1.946l-2.485 7.062c-.18.587-.738.979-1.358.953h-.15v.604h3.722V44.5h-.245c-.516 0-1.1-.094-1.1-.47.075-.404.189-.8.34-1.182l.475-1.557h3.435l.584 1.745c.147.35.252.714.312 1.088 0 .295-.543.376-.896.376h-.19v.604h4.548V44.5h-.163a.925.925 0 0 1-.937-.537l-.027.013zm-6.354-3.624l1.358-4.122 1.358 4.122h-2.716zm-3.326-5.477v-.618h-4.154v.59h.407c.362-.026.717.109.967.37.25.26.369.617.323.973v5.652l-6.788-7.612h-3.231v.59h.271c.75 0 1.358.602 1.358 1.343v6.484c0 1.222-.299 1.88-1.358 1.88h-.285v.604h4.195v-.605h-.38c-1.168 0-1.358-.389-1.358-1.731v-6.162l7.902 8.699h.719v-.08a10.394 10.394 0 0 1-.081-1.544V36.7c0-1.812.679-1.866 1.357-1.893h.3l-.164.068zm20.364 1.087l-.271-.376a.511.511 0 0 0 .394-.497.468.468 0 0 0-.182-.337.48.48 0 0 0-.375-.092h-.842v.08c.217 0 .231 0 .231.215v1.195c0 .12 0 .12-.244.148v.107h.76v-.08c-.204 0-.23 0-.23-.135v-.537h.23c.127.292.328.546.584.739h.326a1.735 1.735 0 0 1-.367-.457l-.014.027zm-.529-.416h-.19v-.765h.19a.314.314 0 0 1 .246.099.306.306 0 0 1 .08.25.333.333 0 0 1-.074.267.34.34 0 0 1-.252.122v.027zm-38.746-1.49a5.777 5.777 0 0 0-4.13 1.662 5.646 5.646 0 0 0-1.681 4.083 5.487 5.487 0 0 0 1.713 4.068 5.616 5.616 0 0 0 4.18 1.53 5.818 5.818 0 0 0 4.284-1.7 5.684 5.684 0 0 0 1.661-4.26c0-3.356-2.674-5.41-6.014-5.41l-.013.027zm.23 10.524c-2.457 0-3.72-2.577-3.733-5.37 0-2.053.8-4.39 3.462-4.39 2.66 0 3.747 2.686 3.747 4.9 0 2.216-.502 4.833-3.462 4.833l-.014.027zm38.584-10.659c-.907 0-1.643.728-1.643 1.625s.736 1.624 1.643 1.624 1.643-.727 1.643-1.624a1.588 1.588 0 0 0-.459-1.17 1.625 1.625 0 0 0-1.17-.481l-.014.026zm0 2.94a1.35 1.35 0 0 1-1.358-1.342 1.35 1.35 0 0 1 1.358-1.342c.75 0 1.357.6 1.357 1.342a1.35 1.35 0 0 1-1.344 1.315l-.013.027zM131.81 34.85v-.59h-4.1v.59h.407c.362-.027.717.108.967.368s.369.618.323.974v5.652l-6.788-7.612h-3.286v.59h.272c.75 0 1.358.602 1.358 1.343v6.47c0 1.236-.313 1.88-1.358 1.893h-.285v.591h4.195v-.59h-.326c-1.167 0-1.358-.39-1.358-1.732v-6.162l7.902 8.699h.719v-.08a9.731 9.731 0 0 1-.095-1.544V36.7c0-1.812.68-1.866 1.358-1.893h.095v.04zm-14.513 8.792l-2.607-3.866a2.96 2.96 0 0 0 2.132-2.684c0-2.229-1.82-2.766-3.774-2.766h-4.928v.59h.353c.488 0 1.018 0 1.031 1.102v7.812a.87.87 0 0 1-.348.605.89.89 0 0 1-.683.16h-.353v.591h5.036v-.59h-.353c-.72 0-1.194 0-1.208-1.168v-3.222h.923a43.449 43.449 0 0 0 3.218 4.967h3.054v-.59a1.671 1.671 0 0 1-1.48-.94h-.013zm-5.037-4.188h-.679v-4.39c.272-.018.544-.018.815 0 .6-.044 1.19.172 1.614.592.426.42.644 1.004.599 1.597a1.96 1.96 0 0 1-.595 1.697 2.01 2.01 0 0 1-1.74.518l-.014-.014zm-14.62-5.733v.067c0 .403-.34.403-.774.416H88.72c-.394 0-.679 0-.787-.402h-.489v.067c.003.449-.03.898-.095 1.342 0 .443-.122.873-.19 1.343v.08h.597c.258-1.14.231-1.342 1.358-1.342h2.484v8.148c0 1.195-.366 1.208-1.222 1.222h-.366v.59h5.172v-.59h-.366c-.747 0-1.208-.094-1.222-1.262v-8.055h2.484c.344.02.662.188.87.459.21.27.288.618.217.951v.094l.706-.443v-1.249c0-.416.108-.832.162-1.235l-.434-.067h-.068l.109-.134zm9.3 8.659c-.462 1.731-1.222 1.825-3.096 1.825-1.018 0-1.833 0-1.833-.94V39.75h1.806c1.032 0 1.045.523 1.14 1.463v.067l.543-.108v-3.557h-.597c-.109.832-.258 1.342-1.168 1.342h-1.792v-3.892h2.105a1.546 1.546 0 0 1 1.379.387c.367.346.536.85.453 1.344v.08l.544-.147v-2.47h-7.915v.59h.285c.556 0 1.072 0 1.086.82v8.054c0 .752-.516.805-1.086.819h-.285v.59h8.321c.136-.818.326-1.624.53-2.443l-.503-.134.081-.174zm48.086-8.055h-2.308v.59h.285c.57 0 1.073 0 1.086.82v8.054c0 .752-.515.806-1.086.819h-.285v.59h4.752v-.59h-.285c-.57 0-1.086 0-1.086-.819v-8.054c0-.752.516-.806 1.086-.82h.285v-.657c-.747 0-1.67.067-2.444.067zm-13.576 9.639c-.204-.457-.394-1.02-.57-1.558l-2.865-8.054-.136-.39a.19.19 0 0 0-.162-.093.398.398 0 0 0-.15 0 8.54 8.54 0 0 1-1.357.658c-.17.66-.38 1.31-.625 1.946l-2.498 7.061a1.356 1.356 0 0 1-1.29.953h-.163v.604h3.68v-.604h-.231c-.516 0-1.1-.094-1.1-.47a6.4 6.4 0 0 1 .34-1.181l.488-1.557h3.435l.597 1.745c.142.35.243.715.3 1.087 0 .296-.53.376-.897.376h-.244v.604h4.67v-.604h-.163a.912.912 0 0 1-1.018-.523h-.041zm-6.354-3.625l1.358-4.121 1.358 4.121h-2.716zm16.563-6.564v.067c0 .403-.34.403-.774.416h-8.145c-.394 0-.68 0-.788-.403h-.488v.067c.002.45-.03.898-.095 1.343 0 .443-.123.872-.19 1.342v.08h.597c.258-1.14.23-1.342 1.357-1.342h2.485v8.149c0 1.195-.367 1.208-1.222 1.221h-.367v.591h5.173v-.59h-.367c-.746 0-1.208-.095-1.221-1.262v-8.055h2.484c.344.02.662.187.87.458.21.271.288.619.216.952v.094l.557-.202v-1.248c0-.416.108-.832.176-1.235l-.448-.067h-.068l.258-.376z" fill="#000"/><path d="M27.424 53.763C12.42 53.868.157 41.953 0 27.117 0 11.088 12.381 0 27.424 0h7.046c14.866 0 28.428 11.075 28.428 27.117 0 14.659-13.576 26.646-28.428 26.646h-7.046zm0-51.535c-13.744 0-24.885 11.017-24.885 24.607S13.68 51.44 27.424 51.44c13.744 0 24.885-11.017 24.885-24.606 0-13.57-11.108-24.577-24.83-24.607h-.055zm-5.58 39.158V12.243c-6.122 2.296-10.17 8.097-10.17 14.571 0 6.475 4.048 12.275 10.17 14.572zm21.423-14.551c.006-6.473-4.029-12.277-10.141-14.592v29.116c6.09-2.306 10.118-8.077 10.141-14.524z" fill="#004A97"/></g></svg><svg width="114" height="74" viewBox="-2 -2 51 33" y="610"><g fill="none" fill-rule="evenodd"><path fill="#1A1919" d="M.514 28.466H46.41V.064H.514z"/><path d="M15.066 19.464a4.705 4.705 0 0 1-3.373 1.358 4.668 4.668 0 0 1-2.438-.735L7.5 22.894a7.943 7.943 0 0 0 4.146 1.238 7.966 7.966 0 0 0 5.723-2.292l-2.303-2.376zm-7.991-2.887a4.18 4.18 0 0 1-.029-.57c.042-2.621 2.189-4.71 4.796-4.668a4.69 4.69 0 0 1 3.53 1.682l-8.297 3.556zm4.814-8.552c-4.424-.068-8.07 3.482-8.138 7.929a8.033 8.033 0 0 0 1.298 4.52l14.526-6.234c-.818-3.513-3.93-6.155-7.686-6.215zM24.13 4.396v15.55l2.687 1.119-1.27 3.067-2.658-1.11c-.598-.26-1.002-.656-1.31-1.104-.294-.457-.513-1.084-.513-1.929V4.396h3.064zm9.687 7.186a4.724 4.724 0 0 1 6.12 3.55l3.237-.662c-.743-3.678-3.981-6.447-7.862-6.447-.889 0-1.743.146-2.54.414l1.045 3.145zM29.998 22.11l2.188-2.482a4.736 4.736 0 0 1-1.592-3.55c0-1.413.615-2.68 1.59-3.548l-2.187-2.483a8.049 8.049 0 0 0-2.705 6.03 8.047 8.047 0 0 0 2.706 6.034m9.939-5.081a4.726 4.726 0 0 1-4.625 3.787 4.692 4.692 0 0 1-1.497-.244l-1.048 3.145a7.98 7.98 0 0 0 2.545.415c3.878 0 7.115-2.765 7.861-6.438l-3.236-.666z" fill="#FFFFFE"/></g></svg><svg width="158" height="82" viewBox="-2 -2 158 82" y="684"><title>645F4437-DED3-4A97-866F-674F5979AB49</title><g fill="none" fill-rule="evenodd"><path d="M42.23 6.296H26.285c-7.045.326-12.803 3.108-14.464 8.84-.867 2.993-1.344 6.275-2.023 9.377C6.353 40.276 3.297 56.477 0 71.923h124.106c9.596 0 16.185-1.986 17.964-9.453.827-3.469 1.618-7.4 2.415-11.205 3.086-14.855 6.172-29.706 9.334-44.987H42.229v.018z" fill="#B82720"/><path d="M40.98 29.62c.666-.449 1.524-2.5.543-3.352-.302-.27-.83-.35-1.555-.228-.52.04-.998.288-1.323.686-.423.566-.81 2.264-.157 2.898.652.633 2.071.284 2.491-.003zm-9.482-3.352c-.478 3.04-1.015 6.017-1.556 8.994-3.463.035-7.002.169-10.342-.077.631-2.912 1.084-6.002 1.712-8.917h-3.735c-1.338 7.431-2.551 14.978-4.043 22.256h3.81c.605-3.732 1.157-7.506 1.945-11.051 3.25-.08 7.145-.216 10.267.077-.655 3.7-1.425 7.25-2.026 10.974h3.81c1.223-7.541 2.516-15.017 4.044-22.256h-3.886zm53.89 6.398c-2.965-1.183-5.296.811-6.377 2.664.245-.826.347-1.793.544-2.664H76.61c-.721 5.49-1.787 10.655-2.799 15.855h3.346c.468-3.09.67-7.257 1.712-10.214.83-2.367 3.02-4.374 6.145-3.276.03-.87.284-1.536.374-2.365zm1.867 12.135c-.302-.781-.39-2.072-.302-3.049.172-2.202.99-4.883 2.255-6.096 1.746-1.676 5.188-1.397 7.933-.46.084-.908.272-1.716.39-2.592-4.503-.722-8.779-.272-11.043 2.072-2.22 2.282-3.672 7.523-2.646 10.823 1.208 3.848 6.598 4.07 10.965 2.593.193-.775.302-1.64.465-2.439-2.392 1.19-6.955 1.812-8.017-.852zm37.56-12.043c-2.956-1.447-5.417.983-6.377 2.439.275-.749.302-1.75.544-2.516h-2.957a240.602 240.602 0 0 1-2.877 15.855h3.42c.022-2.101.445-3.655.78-5.718.716-4.401 1.763-9.225 7-7.775.178-.755.25-1.598.47-2.297l-.003.012zm-87.266-.077c-.09 0-.085.122-.079.228-.736 5.401-1.733 10.548-2.799 15.627h3.343c.803-5.437 1.724-10.761 2.878-15.855h-3.343zm29.399-.31c-2.416.183-4.46.864-5.91 2.367-1.781 1.838-3.222 5.902-2.799 9.604.604 5.28 7.31 5.09 12.683 3.812.09-.926.32-1.72.468-2.592-2.21.81-6.04 1.941-8.322.532-1.716-1.062-1.728-3.756-1.166-6.097 3.605-.112 7.353-.091 10.964 0 .23-1.66.885-3.468.302-5.108-.746-2.172-3.454-2.732-6.22-2.519zm3.188 5.791h-7.85c.355-2.146 2.214-3.745 4.432-3.812 2.416-.094 4.155.865 3.427 3.81l-.009.002zm-15.853-5.496c-2.829-1.041-6.28.202-7.775 1.385 0 .054-.036.06-.079.063l.079-.063c.024-.509.208-.864.233-1.373h-2.878c-1.208 7.82-2.621 15.42-4.122 22.943h3.352c.483-2.93.803-6.02 1.476-8.766.764 2.886 5.738 2.335 7.851 1.22 4.337-2.31 7.685-13.26 1.863-15.409zm-2.645 12.88c-1.787 1.86-6.187 1.83-6.531-1.296-.151-1.358.365-2.785.622-4.19.257-1.406.444-2.791.7-4.04 1.764-2.11 6.946-2.368 7.465 1.142.456 3.051-.773 6.852-2.256 8.39v-.005zm85.621-19.74a72.974 72.974 0 0 1-1.165 7.103c-8.202-2.545-13.232 3.371-13.145 10.673.018 1.411.266 2.811 1.166 3.812 1.552 1.722 6 2.133 8.243.686.442-.324.835-.71 1.166-1.142.217-.267.559-.962.622-.764a16.7 16.7 0 0 0-.302 2.368h3.02c.586-8.219 2.391-15.24 3.732-22.715h-3.337v-.021zm-7.464 20.96c-2.253.047-3.37-1.317-3.421-3.581-.091-3.966 1.685-8.37 5.287-8.767 1.679-.183 2.893.199 4.122.61-1.13 4.446-.722 11.632-5.988 11.744v-.006zm-28.853-14.1c-.163.906-.416 1.726-.622 2.593 1.975-.485 8.117-1.971 8.709.61.196.858-.142 1.775-.39 2.438-5.556-.515-10.085.388-11.275 4.268-.797 2.599.09 5.156 1.788 5.87 3.273 1.372 7.247-.202 8.633-2.368-.18.8-.258 1.62-.233 2.438h2.878c.03-2.702.432-4.886.855-7.316.362-2.072 1.041-4.12.933-5.946-.245-4.176-7.317-2.696-11.276-2.587zm5.436 12.807c-1.724 1.654-6.562 2.122-6.067-1.83.42-3.282 4.08-3.977 8.005-3.504-.28 1.797-.604 4.07-1.93 5.337l-.008-.003z" fill="#FFF"/></g></svg><svg height="84" width="114" viewBox="-2 -2 99 78" y="766"><title>3A39A307-75EC-417C-B901-3E1CFA9EED76</title><g fill-rule="evenodd" fill="none"><path fill="#F79F1A" d="M94.92 29.255c0 16.066-13.119 29.09-29.302 29.09s-29.302-13.024-29.302-29.09C36.316 13.19 49.435.166 65.618.166S94.92 13.19 94.92 29.255z"/><path fill="#EA001B" d="M58.772 29.255c0 16.066-13.119 29.09-29.302 29.09S.168 45.321.168 29.255C.168 13.19 13.287.166 29.47.166S58.772 13.19 58.772 29.255z"/><path fill="#FF5F01" d="M47.544 6.356c-6.837 5.326-11.225 13.601-11.225 22.897s4.388 17.577 11.225 22.902c6.837-5.325 11.225-13.606 11.225-22.902s-4.388-17.57-11.225-22.897z"/><path d="M6.686 72.735H5.023v-7.689h1.63v.937s1.432-1.145 2.282-1.13c1.654.027 2.641 1.42 2.641 1.42s.801-1.42 2.608-1.42c2.673 0 3.065 2.422 3.065 2.422v5.428h-1.597v-4.782s.005-1.453-1.728-1.453c-1.793 0-1.957 1.454-1.957 1.454v4.781h-1.662v-4.814s-.16-1.518-1.663-1.518c-1.952 0-1.989 1.55-1.989 1.55l.033 4.814zm50.566-7.884c-.851-.014-2.282 1.131-2.282 1.131v-.935h-1.632v7.687h1.664l-.032-4.813s.036-1.547 1.988-1.547c.363 0 .645.087.867.22v-.006l.542-1.497a3.01 3.01 0 0 0-1.115-.24zm23.422 0c-.85-.014-2.282 1.131-2.282 1.131v-.935H76.76v7.687h1.664l-.032-4.813s.037-1.547 1.989-1.547c.363 0 .644.087.867.22v-.006l.542-1.497a3.011 3.011 0 0 0-1.116-.24zm-58.048-.031c-2.489 0-3.806 2.216-3.812 4.067-.007 1.898 1.499 4.087 3.882 4.087 1.39 0 2.532-1.017 2.532-1.017l-.003.783h1.637v-7.696h-1.643v.97s-1.072-1.194-2.593-1.194zm.318 1.566c1.337 0 2.423 1.153 2.423 2.571s-1.086 2.564-2.423 2.564-2.416-1.146-2.416-2.564 1.079-2.57 2.416-2.57zm47.412-1.566c-2.488 0-3.805 2.216-3.812 4.067-.007 1.898 1.499 4.087 3.882 4.087 1.39 0 2.532-1.017 2.532-1.017l-.003.783h1.637v-7.696H72.95v.97s-1.073-1.194-2.594-1.194zm.319 1.566c1.337 0 2.422 1.153 2.422 2.571s-1.085 2.564-2.422 2.564-2.416-1.146-2.416-2.564 1.079-2.57 2.416-2.57zm15.396-1.566c-2.489 0-3.806 2.216-3.812 4.067-.007 1.898 1.499 4.087 3.882 4.087 1.39 0 2.532-1.017 2.532-1.017l-.003.783h1.637V62.006h-1.643v4.008s-1.072-1.194-2.593-1.194zm.318 1.566c1.337 0 2.423 1.153 2.423 2.571s-1.086 2.564-2.423 2.564-2.416-1.146-2.416-2.564 1.079-2.57 2.416-2.57zm-54.534 6.607c-1.695 0-3.26-1.033-3.26-1.033l.717-1.099s1.481.679 2.543.679c.69 0 1.845-.221 1.859-.905.014-.723-1.94-.937-1.94-.937s-2.918-.04-2.918-2.423c0-1.499 1.457-2.455 3.325-2.455 1.08 0 3.097.937 3.097.937l-.815 1.26s-1.558-.617-2.38-.646c-.694-.025-1.532.304-1.532.904 0 1.63 4.858-.127 4.858 3.166 0 2.161-1.979 2.552-3.554 2.552zm6.254-10.176v2.237h-1.447v1.617h1.447v3.865s-.128 2.615 2.709 2.615c.785 0 2.321-.575 2.321-.575l-.657-1.68s-.611.516-1.3.5c-1.312-.034-1.275-.866-1.275-.866v-3.86h2.703v-1.615h-2.703v-2.238h-1.798zm9.849 2.098c-2.669 0-4.002 2.177-3.991 4.067.012 1.944 1.214 4.131 4.15 4.131 1.257 0 3.022-1.093 3.022-1.093l-.759-1.307s-1.204.846-2.263.846c-2.119 0-2.256-2.052-2.256-2.052h5.673s.423-4.592-3.576-4.592zm-.243 1.51c.063-.004.131 0 .198 0 1.997 0 1.983 1.869 1.983 1.869h-4.035s-.096-1.76 1.854-1.87zm17.118 4.268l.761 1.508s-1.206.776-2.559.776c-2.802 0-4.357-2.089-4.357-4.066 0-3.107 2.475-4.02 4.149-4.02 1.52 0 2.836.868 2.836.868l-.853 1.508s-.517-.8-2.029-.8c-1.509 0-2.305 1.29-2.305 2.513 0 1.371.927 2.536 2.328 2.536 1.1 0 2.029-.823 2.029-.823z" fill="#fff"/></g></svg><svg height="94" width="114" viewBox="-2 -2 99 78" y="850"><title>3A39A307-75EC-417C-B901-3E1CFA9EED76</title><g fill-rule="evenodd" fill="none"><path fill="#F79F1A" d="M94.92 29.255c0 16.066-13.119 29.09-29.302 29.09s-29.302-13.024-29.302-29.09C36.316 13.19 49.435.166 65.618.166S94.92 13.19 94.92 29.255z"/><path fill="#EA001B" d="M58.772 29.255c0 16.066-13.119 29.09-29.302 29.09S.168 45.321.168 29.255C.168 13.19 13.287.166 29.47.166S58.772 13.19 58.772 29.255z"/><path fill="#FF5F01" d="M47.544 6.356c-6.837 5.326-11.225 13.601-11.225 22.897s4.388 17.577 11.225 22.902c6.837-5.325 11.225-13.606 11.225-22.902s-4.388-17.57-11.225-22.897z"/><path d="M6.686 72.735H5.023v-7.689h1.63v.937s1.432-1.145 2.282-1.13c1.654.027 2.641 1.42 2.641 1.42s.801-1.42 2.608-1.42c2.673 0 3.065 2.422 3.065 2.422v5.428h-1.597v-4.782s.005-1.453-1.728-1.453c-1.793 0-1.957 1.454-1.957 1.454v4.781h-1.662v-4.814s-.16-1.518-1.663-1.518c-1.952 0-1.989 1.55-1.989 1.55l.033 4.814zm50.566-7.884c-.851-.014-2.282 1.131-2.282 1.131v-.935h-1.632v7.687h1.664l-.032-4.813s.036-1.547 1.988-1.547c.363 0 .645.087.867.22v-.006l.542-1.497a3.01 3.01 0 0 0-1.115-.24zm23.422 0c-.85-.014-2.282 1.131-2.282 1.131v-.935H76.76v7.687h1.664l-.032-4.813s.037-1.547 1.989-1.547c.363 0 .644.087.867.22v-.006l.542-1.497a3.011 3.011 0 0 0-1.116-.24zm-58.048-.031c-2.489 0-3.806 2.216-3.812 4.067-.007 1.898 1.499 4.087 3.882 4.087 1.39 0 2.532-1.017 2.532-1.017l-.003.783h1.637v-7.696h-1.643v.97s-1.072-1.194-2.593-1.194zm.318 1.566c1.337 0 2.423 1.153 2.423 2.571s-1.086 2.564-2.423 2.564-2.416-1.146-2.416-2.564 1.079-2.57 2.416-2.57zm47.412-1.566c-2.488 0-3.805 2.216-3.812 4.067-.007 1.898 1.499 4.087 3.882 4.087 1.39 0 2.532-1.017 2.532-1.017l-.003.783h1.637v-7.696H72.95v.97s-1.073-1.194-2.594-1.194zm.319 1.566c1.337 0 2.422 1.153 2.422 2.571s-1.085 2.564-2.422 2.564-2.416-1.146-2.416-2.564 1.079-2.57 2.416-2.57zm15.396-1.566c-2.489 0-3.806 2.216-3.812 4.067-.007 1.898 1.499 4.087 3.882 4.087 1.39 0 2.532-1.017 2.532-1.017l-.003.783h1.637V62.006h-1.643v4.008s-1.072-1.194-2.593-1.194zm.318 1.566c1.337 0 2.423 1.153 2.423 2.571s-1.086 2.564-2.423 2.564-2.416-1.146-2.416-2.564 1.079-2.57 2.416-2.57zm-54.534 6.607c-1.695 0-3.26-1.033-3.26-1.033l.717-1.099s1.481.679 2.543.679c.69 0 1.845-.221 1.859-.905.014-.723-1.94-.937-1.94-.937s-2.918-.04-2.918-2.423c0-1.499 1.457-2.455 3.325-2.455 1.08 0 3.097.937 3.097.937l-.815 1.26s-1.558-.617-2.38-.646c-.694-.025-1.532.304-1.532.904 0 1.63 4.858-.127 4.858 3.166 0 2.161-1.979 2.552-3.554 2.552zm6.254-10.176v2.237h-1.447v1.617h1.447v3.865s-.128 2.615 2.709 2.615c.785 0 2.321-.575 2.321-.575l-.657-1.68s-.611.516-1.3.5c-1.312-.034-1.275-.866-1.275-.866v-3.86h2.703v-1.615h-2.703v-2.238h-1.798zm9.849 2.098c-2.669 0-4.002 2.177-3.991 4.067.012 1.944 1.214 4.131 4.15 4.131 1.257 0 3.022-1.093 3.022-1.093l-.759-1.307s-1.204.846-2.263.846c-2.119 0-2.256-2.052-2.256-2.052h5.673s.423-4.592-3.576-4.592zm-.243 1.51c.063-.004.131 0 .198 0 1.997 0 1.983 1.869 1.983 1.869h-4.035s-.096-1.76 1.854-1.87zm17.118 4.268l.761 1.508s-1.206.776-2.559.776c-2.802 0-4.357-2.089-4.357-4.066 0-3.107 2.475-4.02 4.149-4.02 1.52 0 2.836.868 2.836.868l-.853 1.508s-.517-.8-2.029-.8c-1.509 0-2.305 1.29-2.305 2.513 0 1.371.927 2.536 2.328 2.536 1.1 0 2.029-.823 2.029-.823z" fill="#000"/></g></svg><svg width="394" height="82" viewBox="-2 -2 444 82" y="944"><title>logo_visa</title><path d="M61.024 32.148c-.063 5.294 4.735 8.244 8.349 10.004 3.712 1.802 4.958 2.956 4.944 4.566-.028 2.468-2.962 3.556-5.708 3.598-4.792.074-7.575-1.292-9.792-2.322l-1.726 8.054c2.226 1.02 6.34 1.908 10.603 1.952 10.017 0 16.568-4.932 16.6-12.576.042-9.698-13.45-10.234-13.359-14.568.031-1.317 1.289-2.718 4.045-3.077 1.365-.178 5.133-.315 9.4 1.643l1.676-7.793C83.76 20.799 80.809 20 77.134 20c-9.423 0-16.057 4.996-16.11 12.148zm41.141-11.475a4.34 4.34 0 0 0-4.06 2.695L83.798 57.427H93.81l1.988-5.492h12.231l1.152 5.492H118l-7.698-36.754h-8.137zm1.397 9.93l2.889 13.8h-7.91l5.021-13.8zm-54.668-9.93l-7.888 36.754h9.535l7.885-36.754h-9.532zm-14.109 0l-9.923 25.015-4.014-21.27c-.47-2.374-2.331-3.745-4.398-3.745H.225L0 21.738c3.33.722 7.114 1.887 9.407 3.128 1.403.76 1.803 1.422 2.265 3.228l7.602 29.333h10.079L44.8 20.673H34.785z" fill="#FFF" fill-rule="evenodd"/></svg><svg width="394" height="82" viewBox="-2 -2 444 82" y="1026"><title>logo_visa</title><path d="M61.024 32.148c-.063 5.294 4.735 8.244 8.349 10.004 3.712 1.802 4.958 2.956 4.944 4.566-.028 2.468-2.962 3.556-5.708 3.598-4.792.074-7.575-1.292-9.792-2.322l-1.726 8.054c2.226 1.02 6.34 1.908 10.603 1.952 10.017 0 16.568-4.932 16.6-12.576.042-9.698-13.45-10.234-13.359-14.568.031-1.317 1.289-2.718 4.045-3.077 1.365-.178 5.133-.315 9.4 1.643l1.676-7.793C83.76 20.799 80.809 20 77.134 20c-9.423 0-16.057 4.996-16.11 12.148zm41.141-11.475a4.34 4.34 0 0 0-4.06 2.695L83.798 57.427H93.81l1.988-5.492h12.231l1.152 5.492H118l-7.698-36.754h-8.137zm1.397 9.93l2.889 13.8h-7.91l5.021-13.8zm-54.668-9.93l-7.888 36.754h9.535l7.885-36.754h-9.532zm-14.109 0l-9.923 25.015-4.014-21.27c-.47-2.374-2.331-3.745-4.398-3.745H.225L0 21.738c3.33.722 7.114 1.887 9.407 3.128 1.403.76 1.803 1.422 2.265 3.228l7.602 29.333h10.079L44.8 20.673H34.785z" fill="#143281" fill-rule="evenodd"/></svg></svg>